<svg width="25" height="33" viewBox="0 0 25 33" fill="none" xmlns="http://www.w3.org/2000/svg">
<path id="Vector" d="M24.8106 11.9139C24.8888 13.3967 24.6731 14.8803 24.1759 16.2795C23.6786 17.6786 22.9097 18.9656 21.9133 20.0666C20.9169 21.1675 19.7127 22.0605 18.3699 22.6944C17.0271 23.3282 15.5723 23.6904 14.0891 23.7599C12.8414 23.8279 11.5943 23.6174 10.438 23.144C9.28175 22.6705 8.24522 21.9458 7.40353 21.0223V32.1048H0.673981V0.697246H7.40353V2.80545C8.24543 1.8824 9.28205 1.15812 10.4383 0.685023C11.5946 0.21193 12.8416 0.00186854 14.0891 0.0700556C15.5722 0.13936 17.027 0.501234 18.3698 1.13485C19.7125 1.76846 20.9168 2.66132 21.9132 3.76205C22.9096 4.86278 23.6786 6.14967 24.1758 7.54868C24.6731 8.94769 24.8888 10.4312 24.8106 11.9139ZM18.081 11.9139C18.0546 10.8636 17.719 9.84438 17.1162 8.98386C16.5134 8.12334 15.6702 7.45972 14.6922 7.07605C13.7141 6.69238 12.6446 6.60569 11.6175 6.82687C10.5904 7.04804 9.65129 7.56723 8.9178 8.31946C8.18431 9.0717 7.68898 10.0236 7.49379 11.0559C7.29861 12.0883 7.41224 13.1553 7.82047 14.1234C8.22869 15.0915 8.91338 15.9176 9.78884 16.4985C10.6643 17.0794 11.6916 17.3892 12.7423 17.3891C13.4638 17.4216 14.1839 17.3011 14.8555 17.0356C15.5272 16.7701 16.135 16.3655 16.6392 15.8484C17.1434 15.3314 17.5325 14.7135 17.781 14.0354C18.0295 13.3573 18.1317 12.6343 18.081 11.9139Z" fill="white"/>
</svg>
