<svg width="34" height="24" viewBox="0 0 34 24" fill="none" xmlns="http://www.w3.org/2000/svg">
<path id="Vector" d="M33.7519 9.35388V23.1299H27.0224V9.93925C27.0224 7.6968 25.944 6.25979 23.7918 6.25979C21.5472 6.25979 20.2928 7.83105 20.2928 10.4784V23.1299H13.5611V9.93925C13.5611 7.6968 12.4849 6.25979 10.3305 6.25979C8.08807 6.25979 6.83151 7.83105 6.83151 10.4784V23.1299H0.101929V0.696574H6.84249V2.75197C7.53994 1.83674 8.45564 1.11089 9.50589 0.640741C10.5561 0.170589 11.7075 -0.0288724 12.8547 0.0605865C14.0066 0.00426028 15.1535 0.247293 16.1836 0.766008C17.2137 1.28472 18.0919 2.06143 18.7325 3.02045C19.4784 2.01704 20.4666 1.2192 21.6046 0.701553C22.7426 0.183909 23.9934 -0.0366199 25.2398 0.0605865C30.3893 0.0693891 33.7519 3.74666 33.7519 9.35388Z" fill="white"/>
</svg>
