<svg width="20" height="24" viewBox="0 0 20 24" fill="none" xmlns="http://www.w3.org/2000/svg">
<path id="Vector" d="M19.5829 16.3967C19.5829 21.5572 15.0958 23.7556 10.25 23.7556C8.29238 23.9328 6.32667 23.5185 4.60711 22.5663C2.88755 21.6141 1.49325 20.1679 0.604553 18.4147L6.43625 15.0961C6.67333 15.9065 7.18144 16.6109 7.87562 17.0916C8.5698 17.5723 9.40797 17.8001 10.25 17.7369C11.8652 17.7369 12.6707 17.2417 12.6707 16.3461C12.6707 13.877 1.63446 15.1797 1.63446 7.41589C1.63446 2.52607 5.76066 0.0591542 10.437 0.0591542C12.191 0.00409644 13.9277 0.420311 15.4662 1.26445C17.0047 2.10859 18.2887 3.34978 19.1846 4.85875L13.4431 7.95504C13.1919 7.36616 12.7729 6.86429 12.2383 6.51206C11.7037 6.15984 11.0772 5.97286 10.437 5.97447C9.27068 5.97447 8.55326 6.4146 8.55326 7.23103C8.54666 9.80578 19.5829 8.10029 19.5829 16.3967Z" fill="white"/>
</svg>
